<mxfile host="app.diagrams.net" modified="2024-02-07T06:36:50.702Z" agent="Mozilla/5.0 (Windows NT 10.0; Win64; x64) AppleWebKit/537.36 (KHTML, like Gecko) Chrome/121.0.0.0 Safari/537.36" etag="Abmur1_k_wkB5mSaAR_T" version="23.1.1" type="device">
  <diagram name="Page-1" id="hKZXylHXP-YdfhYvNVXi">
    <mxGraphModel dx="1050" dy="557" grid="1" gridSize="10" guides="1" tooltips="1" connect="1" arrows="1" fold="1" page="1" pageScale="1" pageWidth="850" pageHeight="1100" math="0" shadow="0">
      <root>
        <mxCell id="0" />
        <mxCell id="1" parent="0" />
        <mxCell id="84LMcGyoBGaMrzKUlxaC-15" style="edgeStyle=orthogonalEdgeStyle;rounded=0;orthogonalLoop=1;jettySize=auto;html=1;exitX=0.25;exitY=0;exitDx=0;exitDy=0;exitPerimeter=0;endArrow=classic;endFill=1;startArrow=classic;startFill=1;" edge="1" parent="1" source="84LMcGyoBGaMrzKUlxaC-2" target="84LMcGyoBGaMrzKUlxaC-3">
          <mxGeometry relative="1" as="geometry" />
        </mxCell>
        <mxCell id="84LMcGyoBGaMrzKUlxaC-3" value="" style="sketch=0;outlineConnect=0;fontColor=#232F3E;gradientColor=none;fillColor=#232F3D;strokeColor=none;dashed=0;verticalLabelPosition=bottom;verticalAlign=top;align=center;html=1;fontSize=12;fontStyle=0;aspect=fixed;pointerEvents=1;shape=mxgraph.aws4.user;" vertex="1" parent="1">
          <mxGeometry x="90" y="60" width="78" height="78" as="geometry" />
        </mxCell>
        <mxCell id="84LMcGyoBGaMrzKUlxaC-4" value="Rate Limit Exceeded&lt;br&gt;CW Alarm" style="sketch=0;outlineConnect=0;fontColor=#232F3E;gradientColor=none;fillColor=#E7157B;strokeColor=none;dashed=0;verticalLabelPosition=bottom;verticalAlign=top;align=center;html=1;fontSize=12;fontStyle=0;aspect=fixed;pointerEvents=1;shape=mxgraph.aws4.alarm;points=[[0,0.5,0,0,0],[1,0.5,0,0,0]];" vertex="1" parent="1">
          <mxGeometry x="290" y="80" width="78" height="78" as="geometry" />
        </mxCell>
        <mxCell id="84LMcGyoBGaMrzKUlxaC-9" value="EventBridge Every&lt;br&gt;10 Minutes Rule" style="sketch=0;outlineConnect=0;fontColor=#232F3E;gradientColor=none;fillColor=#E7157B;strokeColor=none;dashed=0;verticalLabelPosition=bottom;verticalAlign=top;align=center;html=1;fontSize=12;fontStyle=0;aspect=fixed;pointerEvents=1;shape=mxgraph.aws4.event_time_based;points=[[0,0.5,0,0,0],[0,0.91,0,0,0]];" vertex="1" parent="1">
          <mxGeometry x="480" y="258" width="78" height="78" as="geometry" />
        </mxCell>
        <mxCell id="84LMcGyoBGaMrzKUlxaC-12" value="Update S3 Object&lt;br&gt;Lambda Function" style="sketch=0;outlineConnect=0;fontColor=#232F3E;gradientColor=none;fillColor=#ED7100;strokeColor=none;dashed=0;verticalLabelPosition=bottom;verticalAlign=top;align=center;html=1;fontSize=12;fontStyle=0;aspect=fixed;pointerEvents=1;shape=mxgraph.aws4.lambda_function;points=[[0,0.5,0,0,0],[0,1,0,0,2],[0.5,0,0,0,0],[0.94,0.81,0,0,0]];" vertex="1" parent="1">
          <mxGeometry x="330" y="250" width="48" height="48" as="geometry" />
        </mxCell>
        <mxCell id="84LMcGyoBGaMrzKUlxaC-16" value="" style="group" vertex="1" connectable="0" parent="1">
          <mxGeometry x="90" y="140" width="132" height="118" as="geometry" />
        </mxCell>
        <mxCell id="84LMcGyoBGaMrzKUlxaC-2" value="CloudFront Distribution" style="sketch=0;outlineConnect=0;fontColor=#232F3E;fillColor=#8C4FFF;strokeColor=#ffffff;dashed=0;verticalLabelPosition=bottom;verticalAlign=top;align=center;html=1;fontSize=12;fontStyle=0;aspect=fixed;shape=mxgraph.aws4.resourceIcon;resIcon=mxgraph.aws4.cloudfront;" vertex="1" parent="84LMcGyoBGaMrzKUlxaC-16">
          <mxGeometry y="40" width="78" height="78" as="geometry" />
        </mxCell>
        <mxCell id="84LMcGyoBGaMrzKUlxaC-8" value="WAF Rate&lt;br&gt;Limit Rule" style="sketch=0;points=[[0,0,0],[0.25,0,0],[0.5,0,0],[0.75,0,0],[1,0,0],[0,1,0],[0.25,1,0],[0.5,1,0],[0.75,1,0],[1,1,0],[0,0.25,0],[0,0.5,0],[0,0.75,0],[1,0.25,0],[1,0.5,0],[1,0.75,0]];outlineConnect=0;fontColor=#232F3E;fillColor=#DD344C;strokeColor=#ffffff;dashed=0;verticalLabelPosition=bottom;verticalAlign=top;align=center;html=1;fontSize=12;fontStyle=0;aspect=fixed;shape=mxgraph.aws4.resourceIcon;resIcon=mxgraph.aws4.waf;" vertex="1" parent="84LMcGyoBGaMrzKUlxaC-16">
          <mxGeometry x="82" width="50" height="50" as="geometry" />
        </mxCell>
        <mxCell id="84LMcGyoBGaMrzKUlxaC-17" style="edgeStyle=orthogonalEdgeStyle;rounded=0;orthogonalLoop=1;jettySize=auto;html=1;exitX=0.5;exitY=1;exitDx=0;exitDy=0;exitPerimeter=0;endArrow=none;endFill=0;startArrow=classic;startFill=1;" edge="1" parent="1" source="84LMcGyoBGaMrzKUlxaC-2" target="84LMcGyoBGaMrzKUlxaC-1">
          <mxGeometry relative="1" as="geometry" />
        </mxCell>
        <mxCell id="84LMcGyoBGaMrzKUlxaC-20" value="" style="group" vertex="1" connectable="0" parent="1">
          <mxGeometry x="450" y="60" width="120.21000000000004" height="118" as="geometry" />
        </mxCell>
        <mxCell id="84LMcGyoBGaMrzKUlxaC-6" value="SNS Topic&lt;br&gt;KMS Key" style="sketch=0;outlineConnect=0;fontColor=#232F3E;gradientColor=none;fillColor=#DD344C;strokeColor=none;dashed=0;verticalLabelPosition=bottom;verticalAlign=top;align=center;html=1;fontSize=12;fontStyle=0;aspect=fixed;pointerEvents=1;shape=mxgraph.aws4.data_encryption_key;" vertex="1" parent="84LMcGyoBGaMrzKUlxaC-20">
          <mxGeometry x="90" width="30.21" height="38" as="geometry" />
        </mxCell>
        <mxCell id="84LMcGyoBGaMrzKUlxaC-19" value="Alarm Notification&lt;br&gt;SNS Topic" style="sketch=0;points=[[0,0,0],[0.25,0,0],[0.5,0,0],[0.75,0,0],[1,0,0],[0,1,0],[0.25,1,0],[0.5,1,0],[0.75,1,0],[1,1,0],[0,0.25,0],[0,0.5,0],[0,0.75,0],[1,0.25,0],[1,0.5,0],[1,0.75,0]];outlineConnect=0;fontColor=#232F3E;fillColor=#E7157B;strokeColor=#ffffff;dashed=0;verticalLabelPosition=bottom;verticalAlign=top;align=center;html=1;fontSize=12;fontStyle=0;aspect=fixed;shape=mxgraph.aws4.resourceIcon;resIcon=mxgraph.aws4.sns;" vertex="1" parent="84LMcGyoBGaMrzKUlxaC-20">
          <mxGeometry y="40" width="78" height="78" as="geometry" />
        </mxCell>
        <mxCell id="84LMcGyoBGaMrzKUlxaC-23" style="edgeStyle=orthogonalEdgeStyle;rounded=0;orthogonalLoop=1;jettySize=auto;html=1;exitX=1;exitY=0.91;exitDx=0;exitDy=0;exitPerimeter=0;endArrow=none;endFill=0;startArrow=classic;startFill=1;" edge="1" parent="1" source="84LMcGyoBGaMrzKUlxaC-1" target="84LMcGyoBGaMrzKUlxaC-12">
          <mxGeometry relative="1" as="geometry">
            <Array as="points">
              <mxPoint x="290" y="405" />
              <mxPoint x="290" y="274" />
            </Array>
          </mxGeometry>
        </mxCell>
        <mxCell id="84LMcGyoBGaMrzKUlxaC-24" value="" style="group" vertex="1" connectable="0" parent="1">
          <mxGeometry x="321" y="340" width="104.45498750624682" height="90" as="geometry" />
        </mxCell>
        <mxCell id="84LMcGyoBGaMrzKUlxaC-22" value="" style="group" vertex="1" connectable="0" parent="84LMcGyoBGaMrzKUlxaC-24">
          <mxGeometry width="95" height="90" as="geometry" />
        </mxCell>
        <mxCell id="84LMcGyoBGaMrzKUlxaC-10" value="Lambda Update&lt;br&gt;Object CW Log" style="sketch=0;outlineConnect=0;fontColor=#232F3E;gradientColor=none;fillColor=#E7157B;strokeColor=none;dashed=0;verticalLabelPosition=bottom;verticalAlign=top;align=center;html=1;fontSize=12;fontStyle=0;aspect=fixed;pointerEvents=1;shape=mxgraph.aws4.cloudwatch_logs;" vertex="1" parent="84LMcGyoBGaMrzKUlxaC-22">
          <mxGeometry y="45" width="59.62068965517241" height="44.33333333333333" as="geometry" />
        </mxCell>
        <mxCell id="84LMcGyoBGaMrzKUlxaC-21" value="Lamba Function&lt;br&gt;KMS Key" style="sketch=0;outlineConnect=0;fontColor=#232F3E;gradientColor=none;fillColor=#DD344C;strokeColor=none;dashed=0;verticalLabelPosition=bottom;verticalAlign=top;align=center;html=1;fontSize=12;fontStyle=0;aspect=fixed;pointerEvents=1;shape=mxgraph.aws4.data_encryption_key;" vertex="1" parent="84LMcGyoBGaMrzKUlxaC-24">
          <mxGeometry x="79.99521739130432" y="10" width="24.459770114942526" height="30.773448275862066" as="geometry" />
        </mxCell>
        <mxCell id="84LMcGyoBGaMrzKUlxaC-26" style="edgeStyle=orthogonalEdgeStyle;rounded=0;orthogonalLoop=1;jettySize=auto;html=1;exitX=0;exitY=0.91;exitDx=0;exitDy=0;exitPerimeter=0;entryX=0.94;entryY=0.81;entryDx=0;entryDy=0;entryPerimeter=0;" edge="1" parent="1" source="84LMcGyoBGaMrzKUlxaC-9" target="84LMcGyoBGaMrzKUlxaC-12">
          <mxGeometry relative="1" as="geometry" />
        </mxCell>
        <mxCell id="84LMcGyoBGaMrzKUlxaC-27" style="edgeStyle=orthogonalEdgeStyle;rounded=0;orthogonalLoop=1;jettySize=auto;html=1;exitX=0;exitY=0.25;exitDx=0;exitDy=0;exitPerimeter=0;endArrow=none;endFill=0;startArrow=classic;startFill=1;" edge="1" parent="1" source="84LMcGyoBGaMrzKUlxaC-19" target="84LMcGyoBGaMrzKUlxaC-4">
          <mxGeometry relative="1" as="geometry" />
        </mxCell>
        <mxCell id="84LMcGyoBGaMrzKUlxaC-28" style="edgeStyle=orthogonalEdgeStyle;rounded=0;orthogonalLoop=1;jettySize=auto;html=1;exitX=1;exitY=0.5;exitDx=0;exitDy=0;exitPerimeter=0;" edge="1" parent="1" source="84LMcGyoBGaMrzKUlxaC-8" target="84LMcGyoBGaMrzKUlxaC-4">
          <mxGeometry relative="1" as="geometry" />
        </mxCell>
        <mxCell id="84LMcGyoBGaMrzKUlxaC-29" value="" style="group" vertex="1" connectable="0" parent="1">
          <mxGeometry x="90" y="310" width="152" height="102" as="geometry" />
        </mxCell>
        <mxCell id="84LMcGyoBGaMrzKUlxaC-18" value="" style="group" vertex="1" connectable="0" parent="84LMcGyoBGaMrzKUlxaC-29">
          <mxGeometry x="40" width="112" height="102" as="geometry" />
        </mxCell>
        <mxCell id="84LMcGyoBGaMrzKUlxaC-1" value="S3 Bucket" style="sketch=0;outlineConnect=0;fontColor=#232F3E;gradientColor=none;fillColor=#7AA116;strokeColor=none;dashed=0;verticalLabelPosition=bottom;verticalAlign=top;align=center;html=1;fontSize=12;fontStyle=0;aspect=fixed;pointerEvents=1;shape=mxgraph.aws4.bucket_with_objects;points=[[1,0.5,0,0,0],[1,0.91,0,0,0]];" vertex="1" parent="84LMcGyoBGaMrzKUlxaC-18">
          <mxGeometry y="24" width="75" height="78" as="geometry" />
        </mxCell>
        <mxCell id="84LMcGyoBGaMrzKUlxaC-11" value="S3 Bucket&lt;br&gt;KMS Key" style="sketch=0;outlineConnect=0;fontColor=#232F3E;gradientColor=none;fillColor=#DD344C;strokeColor=none;dashed=0;verticalLabelPosition=bottom;verticalAlign=top;align=center;html=1;fontSize=12;fontStyle=0;aspect=fixed;pointerEvents=1;shape=mxgraph.aws4.data_encryption_key;" vertex="1" parent="84LMcGyoBGaMrzKUlxaC-29">
          <mxGeometry y="10" width="32" height="40.26" as="geometry" />
        </mxCell>
      </root>
    </mxGraphModel>
  </diagram>
</mxfile>
